<svg xmlns="http://www.w3.org/2000/svg" width="24" height="24" viewBox="0 0 24 24"><defs><style>.a{fill:#fff;}</style></defs><g transform="translate(0 0)"><path class="a" d="M22.074,15.753a13.626,13.626,0,0,1-4.279-.682,1.956,1.956,0,0,0-1.9.4l-2.7,2.037a14.913,14.913,0,0,1-6.705-6.7L8.466,8.178a1.94,1.94,0,0,0,.477-1.965,13.647,13.647,0,0,1-.684-4.286A1.928,1.928,0,0,0,6.333,0H1.926A1.928,1.928,0,0,0,0,1.926,22.1,22.1,0,0,0,22.074,24,1.928,1.928,0,0,0,24,22.074v-4.4A1.928,1.928,0,0,0,22.074,15.753Z" transform="translate(0 0)"/></g></svg>