<svg xmlns="http://www.w3.org/2000/svg" width="249.965" height="66.127" viewBox="0 0 249.965 66.127"><defs><style>.a{fill:#696969;}</style></defs><path class="a" d="M0,29.983a5.758,5.758,0,0,0,3.986-1.271A4.569,4.569,0,0,0,5.4,25.129v-13q0-5.789,3.222-8.956T17.722,0V6.161A6.218,6.218,0,0,0,13.4,7.539,4.94,4.94,0,0,0,11.878,11.4V25.154q0,5.237-3.112,8.115T0,36.144ZM8.623,62.965Q5.4,59.817,5.4,54.029V41A4.554,4.554,0,0,0,3.986,37.42,5.832,5.832,0,0,0,0,36.144V29.983q5.687,0,8.782,2.969t3.1,8.4V54.69A4.986,4.986,0,0,0,13.4,58.58a6.183,6.183,0,0,0,4.32,1.378v6.164Q11.853,66.127,8.623,62.965Z"/><path class="a" d="M860.232,36.144q-5.651,0-8.766-2.875t-3.112-8.115V11.4a4.89,4.89,0,0,0-1.524-3.859,6.382,6.382,0,0,0-4.32-1.378V0q5.877,0,9.1,3.176t3.225,8.953V25.123a4.554,4.554,0,0,0,1.414,3.584,5.812,5.812,0,0,0,3.986,1.271ZM842.51,66.127V59.964a6.218,6.218,0,0,0,4.32-1.378,4.975,4.975,0,0,0,1.524-3.89V41.348q0-5.428,3.1-8.4t8.782-2.969v6.161a5.758,5.758,0,0,0-3.986,1.271A4.569,4.569,0,0,0,854.832,41V54.029q0,5.789-3.222,8.94T842.51,66.127Z" transform="translate(-610.267)"/><path class="a" d="M81.367,50.5a12.818,12.818,0,0,1-5.075-5.306A16.9,16.9,0,0,1,74.5,37.248V25.618a17.057,17.057,0,0,1,1.792-7.944,12.835,12.835,0,0,1,5.075-5.306,16.183,16.183,0,0,1,15.131,0,12.854,12.854,0,0,1,5.067,5.306,16.957,16.957,0,0,1,1.792,7.944v11.63a16.912,16.912,0,0,1-1.792,7.944A12.837,12.837,0,0,1,96.5,50.5a16.183,16.183,0,0,1-15.131,0ZM93.4,45.562A7.694,7.694,0,0,0,96.4,42.315a10.69,10.69,0,0,0,1.059-4.868V25.422A10.7,10.7,0,0,0,96.4,20.554,7.685,7.685,0,0,0,93.4,17.31a9.315,9.315,0,0,0-8.945,0,7.685,7.685,0,0,0-2.994,3.244,10.7,10.7,0,0,0-1.059,4.871V37.449a10.69,10.69,0,0,0,1.059,4.868,7.694,7.694,0,0,0,2.994,3.247,9.325,9.325,0,0,0,8.945,0Z" transform="translate(-53.964 -7.598)"/><path class="a" d="M218.915,29.592,229.216,12h6.464L222.1,34.221l-11.01,18.827H204.63Zm.254,5.419-.877-1.411L204.969,12h6.464l9.907,16.708.932,1.524L236.3,53.04h-6.464Z" transform="translate(-148.222 -8.692)"/><path class="a" d="M345,12h5.758V53.048H345Zm2.823,0h23v5.483h-23Zm0,18.29h19.9v5.483H347.831Z" transform="translate(-249.899 -8.692)"/><path class="a" d="M471.091,50.5a12.8,12.8,0,0,1-5.067-5.306,16.881,16.881,0,0,1-1.795-7.944V25.618a16.891,16.891,0,0,1,1.795-7.944,12.818,12.818,0,0,1,5.067-5.306,16.178,16.178,0,0,1,15.128,0,12.834,12.834,0,0,1,5.067,5.306,16.912,16.912,0,0,1,1.792,7.944v11.63a16.912,16.912,0,0,1-1.792,7.944,12.818,12.818,0,0,1-5.067,5.306,16.178,16.178,0,0,1-15.128,0Zm12.038-4.937a7.718,7.718,0,0,0,2.991-3.247,10.69,10.69,0,0,0,1.059-4.868V25.422a10.7,10.7,0,0,0-1.059-4.868,7.7,7.7,0,0,0-2.991-3.244,9.32,9.32,0,0,0-8.948,0,7.686,7.686,0,0,0-2.994,3.244,10.7,10.7,0,0,0-1.059,4.871V37.449a10.69,10.69,0,0,0,1.059,4.868,7.694,7.694,0,0,0,2.994,3.247,9.339,9.339,0,0,0,8.948,0Z" transform="translate(-336.262 -7.598)"/><path class="a" d="M594.39,11.912h5.758V52.985H594.39ZM596.9,30.147h14a5.37,5.37,0,0,0,2.908-.791,5.186,5.186,0,0,0,1.974-2.244,7.663,7.663,0,0,0,.692-3.344,7.663,7.663,0,0,0-.692-3.344,5.21,5.21,0,0,0-1.946-2.244,5.351,5.351,0,0,0-2.922-.791H596.9V11.912h13.783a12.87,12.87,0,0,1,6.252,1.469,10.3,10.3,0,0,1,4.179,4.162,12.728,12.728,0,0,1,1.48,6.224,12.641,12.641,0,0,1-1.494,6.224,10.383,10.383,0,0,1-4.193,4.162,12.8,12.8,0,0,1-6.224,1.469H596.9Zm11.178,4.207,5.731-1.3,10.5,19.927h-6.831Z" transform="translate(-430.543 -8.626)"/><path class="a" d="M728.44,12H734.2V53.048H728.44Zm3.9,35.56h9.287q4.546,0,7.043-2.357a8.7,8.7,0,0,0,2.5-6.646V26.486a8.7,8.7,0,0,0-2.5-6.646q-2.5-2.36-7.043-2.357h-9.287V12h9.116a18.972,18.972,0,0,1,8.441,1.72,12,12,0,0,1,5.334,5.033,16.168,16.168,0,0,1,1.836,7.958v11.63a16.164,16.164,0,0,1-1.836,7.961,11.969,11.969,0,0,1-5.348,5.022,19,19,0,0,1-8.454,1.723h-9.1Z" transform="translate(-527.641 -8.692)"/><path class="a" d="M74.508,183.11h1.783v12.757H74.5Zm.871,0H82.7v1.7H75.379Zm0,5.574h6.359v1.7H75.379Zm0,5.483H82.7v1.7H75.379Z" transform="translate(-53.964 -132.635)"/><path class="a" d="M111.336,183.15h1.624l6.238,9.86-.21.229V183.15h1.772V195.9h-1.654l-6.213-9.711.209-.229v9.94H111.33Z" transform="translate(-80.641 -132.664)"/><path class="a" d="M161.385,189.038v2.183a5.323,5.323,0,0,1-.551,2.453,3.917,3.917,0,0,1-1.533,1.64,4.48,4.48,0,0,1-2.3.579,4.807,4.807,0,0,1-2.324-.551,3.832,3.832,0,0,1-1.549-1.544,4.7,4.7,0,0,1-.551-2.31v-3.677a5.284,5.284,0,0,1,.551-2.448,3.9,3.9,0,0,1,1.533-1.637,4.477,4.477,0,0,1,2.3-.579,4.322,4.322,0,0,1,1.982.458,4.217,4.217,0,0,1,1.516,1.3,4.885,4.885,0,0,1,.827,1.952h-1.9a2.646,2.646,0,0,0-.524-1.078,2.514,2.514,0,0,0-.868-.689,2.376,2.376,0,0,0-1.031-.234,2.464,2.464,0,0,0-1.356.369,2.429,2.429,0,0,0-.9,1.034,3.562,3.562,0,0,0-.317,1.552V191.5a2.925,2.925,0,0,0,.325,1.411,2.321,2.321,0,0,0,.923.943,2.756,2.756,0,0,0,1.378.334,2.616,2.616,0,0,0,1.359-.347,2.3,2.3,0,0,0,.9-1.009,3.583,3.583,0,0,0,.317-1.571v-.551h-2.533V189.03Z" transform="translate(-110.518 -132.661)"/><path class="a" d="M194.092,195.867H192.3V183.11h1.792Z" transform="translate(-139.291 -132.635)"/><path class="a" d="M205.88,183.15H207.5l6.238,9.86-.21.229V183.15H215.3V195.9h-1.64l-6.222-9.711.209-.229v9.94H205.88Z" transform="translate(-149.128 -132.664)"/><path class="a" d="M247.15,183.11h1.792v12.757H247.15Zm.871,0h7.324v1.7h-7.324Zm0,5.574h6.359v1.7h-6.359Zm0,5.483h7.324v1.7h-7.324Z" transform="translate(-179.022 -132.635)"/><path class="a" d="M284,183.11h1.789v12.757H284Zm.868,0h7.319v1.7H284.86Zm0,5.574h6.354v1.7H284.86Zm0,5.483h7.319v1.7H284.86Z" transform="translate(-205.714 -132.635)"/><path class="a" d="M320.79,183.078h1.789v12.766H320.79Zm.78,5.667h4.353a1.654,1.654,0,0,0,.9-.245,1.593,1.593,0,0,0,.612-.7,2.619,2.619,0,0,0,0-2.078,1.6,1.6,0,0,0-1.513-.943H321.57v-1.7h4.281a3.986,3.986,0,0,1,1.943.458,3.186,3.186,0,0,1,1.3,1.293,4.287,4.287,0,0,1,0,3.859,3.217,3.217,0,0,1-1.3,1.293,3.969,3.969,0,0,1-1.93.458H321.57Zm3.473,1.309,1.781-.405,3.264,6.194h-2.123Z" transform="translate(-232.362 -132.61)"/><path class="a" d="M363.409,195.867H361.62V183.11h1.789Z" transform="translate(-261.937 -132.635)"/><path class="a" d="M375.2,183.15h1.621l6.241,9.86-.212.229V183.15h1.772V195.9h-1.64l-6.222-9.711.212-.229v9.94H375.2Z" transform="translate(-271.774 -132.664)"/><path class="a" d="M425.227,189.038v2.183a5.324,5.324,0,0,1-.551,2.453,3.926,3.926,0,0,1-1.535,1.64,4.463,4.463,0,0,1-2.3.579,4.807,4.807,0,0,1-2.324-.551,3.837,3.837,0,0,1-1.552-1.544,4.7,4.7,0,0,1-.551-2.31v-3.677a5.284,5.284,0,0,1,.551-2.448,3.912,3.912,0,0,1,1.533-1.637,4.48,4.48,0,0,1,2.3-.579,4.311,4.311,0,0,1,1.979.458,4.2,4.2,0,0,1,1.519,1.3,4.885,4.885,0,0,1,.827,1.952h-1.9a2.68,2.68,0,0,0-.524-1.078,2.513,2.513,0,0,0-.868-.689,2.376,2.376,0,0,0-1.031-.234,2.464,2.464,0,0,0-1.356.369,2.418,2.418,0,0,0-.9,1.034,3.6,3.6,0,0,0-.317,1.552V191.5a2.924,2.924,0,0,0,.328,1.411,2.3,2.3,0,0,0,.923.943,2.757,2.757,0,0,0,1.378.334,2.6,2.6,0,0,0,1.356-.347,2.269,2.269,0,0,0,.9-1.009,3.583,3.583,0,0,0,.32-1.571v-.551H420.9V189.03Z" transform="translate(-301.628 -132.661)"/><path class="a" d="M517.468,195.967l-.808-.171a6.527,6.527,0,0,1-1.508-.515,6.339,6.339,0,0,1-1.312-.86l1.1-1.34a4.936,4.936,0,0,0,1.574.926,5.466,5.466,0,0,0,1.866.311,3.748,3.748,0,0,0,2.106-.5,1.61,1.61,0,0,0,.747-1.422h0a1.51,1.51,0,0,0-.339-1.036,2.045,2.045,0,0,0-.877-.568,10.267,10.267,0,0,0-1.378-.339.176.176,0,0,0-.055,0,.177.177,0,0,1-.055,0l-.13-.025a13.172,13.172,0,0,1-2.043-.488,2.875,2.875,0,0,1-1.345-.987,3.3,3.3,0,0,1-.551-2.043h0a3.625,3.625,0,0,1,.521-1.982,3.274,3.274,0,0,1,1.519-1.251,6.564,6.564,0,0,1,3.716-.276,6.636,6.636,0,0,1,1.282.436,7.463,7.463,0,0,1,1.243.725l-1,1.395a5.928,5.928,0,0,0-1.422-.788,4.113,4.113,0,0,0-1.422-.276,3.348,3.348,0,0,0-1.99.513,1.676,1.676,0,0,0-.711,1.447h0a1.378,1.378,0,0,0,.367,1.014,2.174,2.174,0,0,0,.912.551,13.574,13.574,0,0,0,1.516.367l.063.014h.066l.094.017.094.019a10.317,10.317,0,0,1,1.9.551,2.961,2.961,0,0,1,1.273,1.028,3.272,3.272,0,0,1,.51,1.93v.017a3.448,3.448,0,0,1-.551,1.957,3.39,3.39,0,0,1-1.568,1.238,6.483,6.483,0,0,1-2.481.425Z" transform="translate(-372.197 -132.735)"/><path class="a" d="M555.983,195.3a3.93,3.93,0,0,1-1.544-1.615,5.16,5.16,0,0,1-.551-2.42v-3.542a5.152,5.152,0,0,1,.551-2.42,3.914,3.914,0,0,1,1.544-1.615,4.918,4.918,0,0,1,4.609,0,3.9,3.9,0,0,1,1.544,1.615,5.152,5.152,0,0,1,.551,2.42v3.542a5.16,5.16,0,0,1-.551,2.42,3.912,3.912,0,0,1-1.544,1.615A4.94,4.94,0,0,1,555.983,195.3Zm3.666-1.505a2.326,2.326,0,0,0,.912-.987,3.263,3.263,0,0,0,.323-1.483v-3.663a3.255,3.255,0,0,0-.322-1.483,2.326,2.326,0,0,0-.912-.987,2.823,2.823,0,0,0-2.724,0,2.327,2.327,0,0,0-.912.987,3.255,3.255,0,0,0-.323,1.483v3.663a3.264,3.264,0,0,0,.323,1.483,2.327,2.327,0,0,0,.912.987A2.823,2.823,0,0,0,559.649,193.792Z" transform="translate(-401.204 -132.635)"/><path class="a" d="M592.85,183.11h1.789v12.757H592.85Zm.877,0h6.387v1.7h-6.4Zm0,5.687h6.186v1.7h-6.194Z" transform="translate(-429.427 -132.635)"/><path class="a" d="M625.75,183.11h9v1.7h-9Zm3.608,1.045h1.789v11.713h-1.789Z" transform="translate(-453.258 -132.635)"/><path class="a" d="M672.229,183.11h1.229l2.613,10,2.247-10h1.861l-3.115,12.757h-1.825l-2.351-8.912-2.456,8.912h-1.817L665.5,183.11h1.861l2.255,10Z" transform="translate(-482.051 -132.635)"/><path class="a" d="M719.643,183.11h1.527l4.7,12.757h-1.93l-3.537-10.29-3.537,10.29h-1.93Zm-2.536,8.27h6.712v1.7H717.1Z" transform="translate(-517.862 -132.635)"/><path class="a" d="M761.68,183.077h1.789v12.766H761.68Zm.78,5.668h4.353a1.654,1.654,0,0,0,.9-.245,1.607,1.607,0,0,0,.609-.7,2.619,2.619,0,0,0,0-2.078,1.615,1.615,0,0,0-.607-.7,1.654,1.654,0,0,0-.907-.245H762.46v-1.7h4.27a3.972,3.972,0,0,1,1.943.458,3.211,3.211,0,0,1,1.3,1.293,4.275,4.275,0,0,1,0,3.859,3.217,3.217,0,0,1-1.3,1.293,3.953,3.953,0,0,1-1.93.458H762.46Zm3.476,1.309,1.781-.405,3.264,6.194h-2.123Z" transform="translate(-551.718 -132.61)"/><path class="a" d="M802.518,183.11H804.3v12.757H802.51Zm.868,0h7.327v1.7h-7.327Zm0,5.574h6.362v1.7h-6.362Zm0,5.483h7.327v1.7h-7.327Z" transform="translate(-581.293 -132.635)"/><path class="a" d="M471.689,196.586l-1.1-1.152a5.447,5.447,0,0,1-1.635.984,5.157,5.157,0,0,1-1.855.339,4.557,4.557,0,0,1-1.61-.276,3.9,3.9,0,0,1-1.254-.736,3.269,3.269,0,0,1-.813-1.1,3.2,3.2,0,0,1-.289-1.345,3.131,3.131,0,0,1,.179-1.07,3.781,3.781,0,0,1,.482-.915,4.723,4.723,0,0,1,.711-.777,8.879,8.879,0,0,1,.849-.662,9.7,9.7,0,0,1-.653-.78,4.811,4.811,0,0,1-.425-.67,3.015,3.015,0,0,1-.237-.609,2.622,2.622,0,0,1,.171-1.745,2.7,2.7,0,0,1,.67-.89,2.985,2.985,0,0,1,1.006-.576,3.837,3.837,0,0,1,1.262-.2,4.136,4.136,0,0,1,1.185.165,3.126,3.126,0,0,1,.981.493,2.315,2.315,0,0,1,.67.8,2.55,2.55,0,0,1,.069,2.023,3.4,3.4,0,0,1-.485.808,5.256,5.256,0,0,1-.719.728,10.875,10.875,0,0,1-.89.67l2.712,2.848a6.126,6.126,0,0,0,.449-1.282,6.386,6.386,0,0,0,.16-1.464H472.8a8.184,8.184,0,0,1-.276,2.125,6.527,6.527,0,0,1-.764,1.756l2.406,2.506Zm-4.388-1.3a3.208,3.208,0,0,0,1.21-.237,3.655,3.655,0,0,0,1.078-.678l-3.12-3.308a5.238,5.238,0,0,0-1.116,1.034,1.93,1.93,0,0,0-.424,1.221,1.706,1.706,0,0,0,.187.8,1.794,1.794,0,0,0,.515.617,2.566,2.566,0,0,0,.755.4A2.806,2.806,0,0,0,467.3,195.283Zm-1.629-8.135a1.122,1.122,0,0,0,.052.331,1.569,1.569,0,0,0,.179.364,3.215,3.215,0,0,0,.356.458c.152.171.342.378.551.626a6.952,6.952,0,0,0,1.229-.94,1.378,1.378,0,0,0,.449-.99,1.1,1.1,0,0,0-.38-.874,1.433,1.433,0,0,0-.976-.331,1.461,1.461,0,0,0-1.059.4,1.282,1.282,0,0,0-.4.957Z" transform="translate(-335.465 -133.569)"/></svg>