<svg xmlns="http://www.w3.org/2000/svg" width="19.688" height="28" viewBox="0 0 19.688 28"><defs><style>.a{fill:#fff;}</style></defs><g transform="translate(-76)"><g transform="translate(76)"><g transform="translate(0)"><path class="a" d="M85.844,0a9.846,9.846,0,0,0-8.374,15.02l7.814,12.592a.82.82,0,0,0,.7.388h.007a.82.82,0,0,0,.7-.4L94.3,14.887A9.846,9.846,0,0,0,85.844,0Zm7.047,14.045L85.968,25.6l-7.1-11.448a8.209,8.209,0,1,1,14.027-.111Z" transform="translate(-76)"/></g></g><g transform="translate(80.793 4.852)"><path class="a" d="M171.05,90a5.05,5.05,0,1,0,5.05,5.05A5.056,5.056,0,0,0,171.05,90Zm0,8.428a3.378,3.378,0,1,1,3.372-3.378A3.381,3.381,0,0,1,171.05,98.428Z" transform="translate(-166 -90)"/></g></g></svg>