<svg xmlns="http://www.w3.org/2000/svg" width="27" height="21.938" viewBox="0 0 27 21.938"><defs><style>.a{fill:#fff;}</style></defs><path class="a" d="M27,50.6a11.54,11.54,0,0,1-3.189.874,5.5,5.5,0,0,0,2.435-3.059,11.062,11.062,0,0,1-3.51,1.34,5.535,5.535,0,0,0-9.575,3.785,5.7,5.7,0,0,0,.128,1.262A15.668,15.668,0,0,1,1.88,49.009a5.537,5.537,0,0,0,1.7,7.4,5.466,5.466,0,0,1-2.5-.682v.061a5.561,5.561,0,0,0,4.435,5.439,5.525,5.525,0,0,1-1.451.182,4.894,4.894,0,0,1-1.048-.094,5.588,5.588,0,0,0,5.172,3.856,11.122,11.122,0,0,1-6.863,2.361A10.368,10.368,0,0,1,0,67.453a15.583,15.583,0,0,0,8.491,2.484A15.646,15.646,0,0,0,24.246,54.186c0-.245-.008-.481-.02-.716A11.042,11.042,0,0,0,27,50.6Z" transform="translate(0 -48)"/></svg>